<?xml version="1.0" encoding="UTF-8" standalone="no"?>
<!-- Created with Inkscape (http://www.inkscape.org/) -->

<svg
   width="63.847824mm"
   height="29.769112mm"
   viewBox="0 0 63.847824 29.769112"
   id="SVGRoot"
   version="1.1"
   xml:space="preserve"
   inkscape:version="1.4 (e7c3feb1, 2024-10-09)"
   sodipodi:docname="mod-io-manager-large.svg"
   xmlns:inkscape="http://www.inkscape.org/namespaces/inkscape"
   xmlns:sodipodi="http://sodipodi.sourceforge.net/DTD/sodipodi-0.dtd"
   xmlns="http://www.w3.org/2000/svg"
   xmlns:svg="http://www.w3.org/2000/svg"><sodipodi:namedview
     inkscape:document-units="mm"
     inkscape:zoom="1.5643366"
     inkscape:cx="99.083535"
     inkscape:cy="88.216308"
     id="namedview1"
     pagecolor="#ffffff"
     bordercolor="#000000"
     borderopacity="0.25"
     inkscape:showpageshadow="2"
     inkscape:pageopacity="0.0"
     inkscape:pagecheckerboard="0"
     inkscape:deskcolor="#d1d1d1"
     inkscape:window-width="1440"
     inkscape:window-height="755"
     inkscape:window-x="0"
     inkscape:window-y="31"
     inkscape:window-maximized="1"
     inkscape:current-layer="layer1" /><defs
     id="defs1"><rect
       x="150.5195"
       y="62.301121"
       width="113.63724"
       height="64.793167"
       id="rect6" /></defs><g
     inkscape:label="Calque 1"
     inkscape:groupmode="layer"
     id="layer1"
     transform="translate(-4.6154746,-3.5)"><path
       d="m 21.859475,6.2248104 c -0.4777,0.028555 -1.181868,0.1122803 -1.650044,0.1979282 -0.08945,0.015218 -0.218866,0.038046 -0.291186,0.051382 l -0.127507,0.022827 -0.03805,0.1256086 c -0.06284,0.2112568 -0.220764,0.7936199 -0.3026,1.1114539 -0.04377,0.1674754 -0.08184,0.304506 -0.08374,0.3064042 -0.0016,0.00164 -0.123703,0.043773 -0.270249,0.093257 -0.399661,0.1370303 -0.795519,0.3007011 -1.191376,0.491012 l -0.35399,0.1712882 -0.321639,-0.1903193 c -0.43963,-0.2607326 -1.033416,-0.593785 -1.058158,-0.593785 -0.02856,0 -0.460559,0.2968966 -0.786003,0.5424029 -1.079095,0.8107445 -1.984995,1.7337779 -2.782428,2.8357079 -0.197929,0.275959 -0.386341,0.555723 -0.386341,0.578567 0,0.01906 0.371123,0.679425 0.62234,1.103829 l 0.161764,0.274061 -0.163671,0.334951 c -0.180803,0.374928 -0.378732,0.854527 -0.506239,1.233251 l -0.08374,0.251218 -0.07806,0.01906 c -0.04189,0.01145 -0.285475,0.07617 -0.542403,0.14464 -0.25692,0.0666 -0.569043,0.152257 -0.694652,0.186515 l -0.228381,0.06472 -0.01334,0.07421 c -0.224569,1.248477 -0.270248,1.716653 -0.270248,2.72914 0,0.907807 0.04754,1.457819 0.199835,2.321853 0.03232,0.182702 0.06284,0.365412 0.06848,0.403474 0.0095,0.07045 0.01334,0.07233 0.140827,0.110382 0.310217,0.08945 0.414896,0.119898 0.902104,0.247413 0.281662,0.07421 0.513849,0.137022 0.513849,0.138929 0.0016,0.0016 0.04377,0.123702 0.09326,0.270248 0.13703,0.399661 0.300701,0.795527 0.491021,1.193282 l 0.17128,0.35399 -0.121804,0.207444 c -0.304506,0.510052 -0.662301,1.141899 -0.662301,1.170446 0,0.02667 0.291186,0.449146 0.529083,0.766972 0.770784,1.029611 1.602459,1.8632 2.620656,2.628274 0.346372,0.260732 0.776487,0.559527 0.805034,0.559527 0.02095,0 0.669918,-0.365404 1.105743,-0.622332 l 0.274053,-0.161772 0.315928,0.152257 c 0.473888,0.230279 0.957292,0.42631 1.366469,0.557621 0.13132,0.04189 0.137031,0.04565 0.156062,0.119906 0.272146,1.029611 0.390146,1.454015 0.405372,1.465428 0.01137,0.0095 0.593786,0.110391 0.896385,0.154164 1.303673,0.188413 2.491243,0.188413 3.794907,0 0.304506,-0.04377 0.884972,-0.144648 0.898292,-0.154164 0.01145,-0.0095 0.131319,-0.437723 0.277866,-0.995353 0.07994,-0.298795 0.146546,-0.544301 0.148444,-0.546208 0.0016,-0.0016 0.110382,-0.03805 0.237897,-0.08183 0.468177,-0.159866 0.776487,-0.285475 1.261797,-0.519559 l 0.315928,-0.152257 0.274053,0.161772 c 0.435825,0.256928 1.084806,0.622332 1.105735,0.622332 0.02855,0 0.458662,-0.298795 0.803136,-0.557629 1.008682,-0.759363 1.834654,-1.585335 2.594016,-2.594008 0.258827,-0.344475 0.557622,-0.774589 0.557622,-0.803136 0,-0.02283 -0.249311,-0.470083 -0.529075,-0.945869 -0.110382,-0.188413 -0.213155,-0.363506 -0.228382,-0.390154 -0.02667,-0.04565 -0.02094,-0.06087 0.07994,-0.262631 0.213155,-0.424404 0.494825,-1.111447 0.612824,-1.493984 0.03044,-0.09897 0.03993,-0.110382 0.100867,-0.125608 0.833581,-0.213155 1.433077,-0.380631 1.461624,-0.409185 0.04001,-0.03993 0.186514,-0.947776 0.241701,-1.495882 0.127515,-1.269414 0.07421,-2.439852 -0.175084,-3.813938 l -0.05138,-0.283577 -0.228373,-0.06472 c -0.125617,-0.03428 -0.437732,-0.119897 -0.69466,-0.186514 -0.256928,-0.06848 -0.500528,-0.133218 -0.542403,-0.14464 l -0.07806,-0.01906 -0.08374,-0.251217 c -0.127515,-0.378724 -0.325444,-0.858324 -0.506239,-1.233251 l -0.16368,-0.334951 0.161773,-0.274061 c 0.256928,-0.435826 0.622332,-1.084798 0.622332,-1.105736 0,-0.02856 -0.300701,-0.464372 -0.542403,-0.786003 -0.766972,-1.018196 -1.60817,-1.859394 -2.626359,-2.6263653 -0.323537,-0.2436081 -0.757464,-0.5424028 -0.786011,-0.5424028 -0.02471,0 -0.618528,0.3330524 -1.058158,0.5937849 L 27.625993,8.7959564 27.272002,8.6246682 C 26.876146,8.4343574 26.480289,8.2706865 26.080619,8.1336562 25.934081,8.0841557 25.812277,8.0423052 25.81037,8.0403988 c -0.0016,0 -0.06087,-0.2150532 -0.129413,-0.4757857 C 25.492544,6.8471175 25.4031,6.5388071 25.380256,6.5159633 25.332637,6.4703082 24.489582,6.3332616 23.882468,6.2704572 23.248714,6.2057384 22.458906,6.1886218 21.85941,6.2248022 Z"
       id="path4"
       style="fill:#000000;stroke:none;stroke-width:0.00190316"
       sodipodi:nodetypes="cccccccccccsccsccccccccccscccccccccsccsccccccccccsccccsccscccccccccccccccccsccscccccccccc" /><path
       id="circle4"
       style="fill:#ffffff;stroke:#000000;stroke-width:0.0409094;paint-order:fill markers stroke"
       d="m 22.592992,10.151565 a 8.2329035,8.2329035 0 0 0 -8.232567,8.232989 8.2329035,8.2329035 0 0 0 8.232567,8.23299 8.2329035,8.2329035 0 0 0 8.23299,-8.23299 8.2329035,8.2329035 0 0 0 -8.23299,-8.232989 z m 0,0.876066 a 7.3571178,7.3571178 0 0 1 7.357347,7.356923 7.3571178,7.3571178 0 0 1 -7.357347,7.356924 7.3571178,7.3571178 0 0 1 -7.356924,-7.356924 7.3571178,7.3571178 0 0 1 7.356924,-7.356923 z" /><g
       id="g3"
       transform="matrix(0.6813741,0,0,0.60291167,8.1337826,-0.73471353)"
       style="fill:#ffffff;stroke:none"><rect
         style="fill:#ffffff;stroke:none;stroke-width:0.0654595;paint-order:fill markers stroke"
         id="rect3"
         width="3.4962292"
         height="17.969334"
         x="29.963448"
         y="-30.205635"
         transform="rotate(90)"
         inkscape:transform-center-x="-11.620167"
         inkscape:transform-center-y="-0.82264271"
         ry="0" /><rect
         style="fill:#ffffff;stroke:none;stroke-width:0.0654595;paint-order:fill markers stroke"
         id="rect5"
         width="3.093627"
         height="20.307848"
         x="-22.769148"
         y="-41.939766"
         transform="scale(-1)"
         inkscape:transform-center-x="-0.027936577"
         inkscape:transform-center-y="0.026799573"
         ry="0" /></g><text
       xml:space="preserve"
       transform="matrix(0.29008677,0,0,0.29008677,-6.7859156,-8.7684776)"
       id="text5"
       style="font-weight:bold;font-size:21.3333px;line-height:normal;font-family:'Linux Biolinum';-inkscape-font-specification:'Linux Biolinum Bold';text-align:start;text-decoration-color:#000000;writing-mode:lr-tb;direction:ltr;white-space:pre;shape-inside:url(#rect6);fill:#000000;stroke:none;stroke-width:0.188976;paint-order:fill markers stroke"><tspan
         x="150.51953"
         y="86.544923"
         id="tspan7"><tspan
   style="font-size:26.6667px"
   id="tspan6">mod.io </tspan>
</tspan><tspan
         x="150.51953"
         y="115.02941"
         id="tspan9"><tspan
           style="font-family:'Linux Biolinum Capitals';-inkscape-font-specification:'Linux Biolinum Capitals Bold'"
           id="tspan8">Manager</tspan></tspan></text></g></svg>
